# Blender 3.3.0
# www.blender.org
mtllib WaterBlast.mtl
o Cylinder
v -0.000000 0.077578 -4.032187
v -0.000000 2.329125 7.490293
v 0.038789 0.067184 -4.032187
v 1.164563 2.017082 7.490293
v 0.067184 0.038789 -4.032187
v 2.017082 1.164563 7.490293
v 0.077577 0.000000 -4.032187
v 2.329126 -0.000001 7.490293
v 0.067184 -0.038788 -4.032187
v 2.017082 -1.164563 7.490293
v 0.038789 -0.067184 -4.032187
v 1.164563 -2.017083 7.490293
v -0.000000 -0.077577 -4.032187
v -0.000000 -2.329127 7.490293
v -0.038789 -0.067184 -4.032187
v -1.164563 -2.017083 7.490293
v -0.067184 -0.038788 -4.032187
v -2.017082 -1.164563 7.490293
v -0.077577 0.000000 -4.032187
v -2.329126 -0.000001 7.490293
v -0.067184 0.038789 -4.032187
v -2.017082 1.164563 7.490293
v -0.038789 0.067184 -4.032187
v -1.164563 2.017082 7.490293
v -0.000000 0.028204 -4.396622
v 0.014102 0.024426 -4.396622
v 0.024425 0.014102 -4.396622
v 0.028204 0.000000 -4.396622
v 0.024425 -0.014102 -4.396622
v 0.014102 -0.024425 -4.396622
v -0.000000 -0.028203 -4.396622
v -0.014102 -0.024425 -4.396622
v -0.024425 -0.014102 -4.396622
v -0.028204 0.000000 -4.396622
v -0.024425 0.014102 -4.396622
v -0.014102 0.024426 -4.396622
v -0.000000 0.875540 2.571602
v -0.000000 0.221065 -2.181507
v -0.000000 0.448477 -0.259519
v 0.110532 0.191447 -2.181507
v 0.437770 0.758240 2.571602
v 0.224238 0.388392 -0.259519
v 0.191447 0.110533 -2.181507
v 0.758240 0.437771 2.571602
v 0.388392 0.224239 -0.259519
v 0.221064 0.000000 -2.181507
v 0.875540 0.000000 2.571602
v 0.448477 0.000000 -0.259519
v 0.191447 -0.110532 -2.181507
v 0.758240 -0.437770 2.571602
v 0.388392 -0.224238 -0.259519
v 0.110532 -0.191447 -2.181507
v 0.437770 -0.758240 2.571602
v 0.224238 -0.388392 -0.259519
v -0.000000 -0.221064 -2.181507
v -0.000000 -0.875540 2.571602
v -0.000000 -0.448477 -0.259519
v -0.110532 -0.191447 -2.181507
v -0.437770 -0.758240 2.571602
v -0.224238 -0.388392 -0.259519
v -0.191447 -0.110532 -2.181507
v -0.758240 -0.437770 2.571602
v -0.388392 -0.224238 -0.259519
v -0.221064 0.000000 -2.181507
v -0.875540 0.000000 2.571602
v -0.448477 0.000000 -0.259519
v -0.191447 0.110533 -2.181507
v -0.758240 0.437771 2.571602
v -0.388392 0.224239 -0.259519
v -0.110532 0.191447 -2.181507
v -0.437770 0.758240 2.571602
v -0.224238 0.388392 -0.259519
v -0.842314 1.458930 7.247005
v -0.000000 1.684628 7.247005
v 0.842314 1.458930 7.247005
v 1.458931 0.842314 7.247005
v 1.684628 -0.000000 7.247005
v 1.458931 -0.842314 7.247005
v 0.842314 -1.458931 7.247005
v -0.000000 -1.684628 7.247005
v -0.842314 -1.458931 7.247005
v -1.458931 -0.842314 7.247005
v -1.684628 -0.000000 7.247005
v -1.458931 0.842314 7.247005
vn -0.4972 0.8612 -0.1053
vn -0.4976 0.8619 -0.0977
vn -0.0000 0.9952 -0.0977
vn -0.0000 0.9944 -0.1053
vn 0.8612 0.4972 -0.1053
vn 0.8619 0.4976 -0.0977
vn 0.9952 -0.0000 -0.0977
vn 0.9944 -0.0000 -0.1053
vn 0.8619 -0.4976 -0.0977
vn 0.8612 -0.4972 -0.1053
vn 0.4976 -0.8619 -0.0977
vn 0.4972 -0.8612 -0.1053
vn -0.0000 -0.9952 -0.0977
vn -0.0000 -0.9944 -0.1053
vn -0.4976 -0.8619 -0.0977
vn -0.4972 -0.8612 -0.1053
vn -0.8619 -0.4976 -0.0977
vn -0.8612 -0.4972 -0.1053
vn -0.9952 -0.0000 -0.0977
vn -0.9944 -0.0000 -0.1053
vn -0.8619 0.4976 -0.0977
vn -0.8612 0.4972 -0.1053
vn 0.8582 -0.4955 -0.1343
vn 0.9909 -0.0000 -0.1343
vn 0.4976 0.8619 -0.0977
vn 0.4972 0.8612 -0.1053
vn -0.0000 0.9909 -0.1343
vn -0.4955 0.8582 -0.1343
vn 0.4955 0.8582 -0.1343
vn 0.8582 0.4955 -0.1343
vn -0.8582 0.4955 -0.1343
vn -0.9909 -0.0000 -0.1343
vn -0.8582 -0.4955 -0.1343
vn -0.4955 -0.8582 -0.1343
vn -0.0000 -0.9909 -0.1343
vn 0.4955 -0.8582 -0.1343
vn -0.6347 0.3665 -0.6803
vn -0.3058 0.1766 -0.9356
vn -0.1766 0.3058 -0.9356
vn -0.3665 0.6347 -0.6803
vn -0.7329 -0.0000 -0.6803
vn -0.3532 -0.0000 -0.9356
vn -0.6347 -0.3665 -0.6803
vn -0.3058 -0.1766 -0.9356
vn -0.3665 -0.6347 -0.6803
vn -0.1766 -0.3058 -0.9356
vn -0.0000 -0.7329 -0.6803
vn -0.0000 -0.3532 -0.9356
vn 0.3665 -0.6347 -0.6803
vn 0.1766 -0.3058 -0.9356
vn 0.6347 -0.3665 -0.6803
vn 0.3058 -0.1766 -0.9356
vn 0.7329 -0.0000 -0.6803
vn 0.3532 -0.0000 -0.9356
vn 0.6347 0.3665 -0.6803
vn 0.3058 0.1766 -0.9356
vn 0.3665 0.6347 -0.6803
vn 0.1766 0.3058 -0.9356
vn -0.0000 0.7329 -0.6803
vn -0.0000 0.3532 -0.9356
vn -0.4935 0.8549 -0.1601
vn -0.0000 0.9871 -0.1601
vn -0.0000 0.9910 -0.1337
vn -0.4955 0.8583 -0.1337
vn -0.8549 0.4935 -0.1601
vn -0.8583 0.4955 -0.1337
vn -0.9871 -0.0000 -0.1601
vn -0.9910 -0.0000 -0.1337
vn -0.8549 -0.4935 -0.1601
vn -0.8583 -0.4955 -0.1337
vn -0.4935 -0.8549 -0.1601
vn -0.4955 -0.8583 -0.1337
vn -0.0000 -0.9871 -0.1601
vn -0.0000 -0.9910 -0.1337
vn 0.4935 -0.8549 -0.1601
vn 0.4955 -0.8583 -0.1337
vn 0.8549 -0.4935 -0.1601
vn 0.8583 -0.4955 -0.1337
vn 0.9871 -0.0000 -0.1601
vn 0.9910 -0.0000 -0.1337
vn 0.8549 0.4935 -0.1601
vn 0.8583 0.4955 -0.1337
vn 0.4935 0.8549 -0.1601
vn 0.4955 0.8583 -0.1337
vt 0.000000 0.001865
vt 1.000000 0.001866
vt 1.000000 1.000000
vt 0.000000 0.999965
vt 0.916667 0.001866
vt 0.916667 1.000000
vt 0.833333 0.001866
vt 0.833333 1.000000
vt 0.750000 0.001866
vt 0.750000 1.000000
vt 0.666667 0.001866
vt 0.666667 1.000000
vt 0.583333 0.001866
vt 0.583333 1.000000
vt 0.500000 0.001866
vt 0.500000 1.000000
vt 0.416667 0.001866
vt 0.416667 1.000000
vt 0.333333 0.001866
vt 0.333333 1.000000
vt 0.250000 0.001866
vt 0.250000 1.000000
vt 0.166667 0.001866
vt 0.166667 1.000000
vt 0.083333 0.001866
vt 0.083333 1.000000
vt 0.000000 0.001865
vt 1.000000 0.001866
vt 0.916667 0.001866
vt 0.833333 0.001866
vt 0.750000 0.001866
vt 0.666667 0.001866
vt 0.583333 0.001866
vt 0.500000 0.001866
vt 0.416667 0.001866
vt 0.333333 0.001866
vt 0.250000 0.001866
vt 0.166667 0.001866
vt 0.083333 0.001866
vt 0.000000 0.717719
vt 1.000000 0.717724
vt 0.000000 0.250213
vt 1.000000 0.250215
vt 0.000000 0.500925
vt 1.000000 0.500928
vt 0.916667 0.250215
vt 0.916667 0.717724
vt 0.916667 0.500928
vt 0.833333 0.250215
vt 0.833333 0.717724
vt 0.833333 0.500928
vt 0.750000 0.250215
vt 0.750000 0.717724
vt 0.750000 0.500928
vt 0.666667 0.250215
vt 0.666667 0.717724
vt 0.666667 0.500928
vt 0.583333 0.250215
vt 0.583333 0.717724
vt 0.583333 0.500928
vt 0.500000 0.250215
vt 0.500000 0.717724
vt 0.500000 0.500928
vt 0.416667 0.250215
vt 0.416667 0.717724
vt 0.416667 0.500928
vt 0.333333 0.250215
vt 0.333333 0.717724
vt 0.333333 0.500928
vt 0.250000 0.250215
vt 0.250000 0.717724
vt 0.250000 0.500928
vt 0.166667 0.250215
vt 0.166667 0.717724
vt 0.166667 0.500928
vt 0.083333 0.250215
vt 0.083333 0.717724
vt 0.083333 0.500928
vt 0.083333 0.904268
vt 0.000000 0.904239
vt 1.000000 0.904268
vt 0.916667 0.904268
vt 0.833333 0.904268
vt 0.750000 0.904268
vt 0.666667 0.904268
vt 0.583333 0.904268
vt 0.500000 0.904268
vt 0.416667 0.904268
vt 0.333333 0.904268
vt 0.250000 0.904268
vt 0.166667 0.904268
s 1
f 23/25/1 70/76/2 38/42/3 1/1/4
f 5/7/5 43/49/6 46/52/7 7/9/8
f 7/9/8 46/52/7 49/55/9 9/11/10
f 9/11/10 49/55/9 52/58/11 11/13/12
f 11/13/12 52/58/11 55/61/13 13/15/14
f 13/15/14 55/61/13 58/64/15 15/17/16
f 15/17/16 58/64/15 61/67/17 17/19/18
f 17/19/18 61/67/17 64/70/19 19/21/20
f 19/21/20 64/70/19 67/73/21 21/23/22
f 21/23/22 67/73/21 70/76/2 23/25/1
f 7/9/8 9/11/10 29/32/23 28/31/24
f 1/2/4 38/43/3 40/46/25 3/5/26
f 23/25/1 1/1/4 25/27/27 36/39/28
f 1/2/4 3/5/26 26/29/29 25/28/27
f 5/7/5 7/9/8 28/31/24 27/30/30
f 21/23/22 23/25/1 36/39/28 35/38/31
f 3/5/26 5/7/5 27/30/30 26/29/29
f 19/21/20 21/23/22 35/38/31 34/37/32
f 17/19/18 19/21/20 34/37/32 33/36/33
f 15/17/16 17/19/18 33/36/33 32/35/34
f 13/15/14 15/17/16 32/35/34 31/34/35
f 11/13/12 13/15/14 31/34/35 30/33/36
f 9/11/10 11/13/12 30/33/36 29/32/23
f 3/5/26 40/46/25 43/49/6 5/7/5
f 84/91/37 22/24/38 24/26/39 73/79/40
f 83/90/41 20/22/42 22/24/38 84/91/37
f 82/89/43 18/20/44 20/22/42 83/90/41
f 81/88/45 16/18/46 18/20/44 82/89/43
f 80/87/47 14/16/48 16/18/46 81/88/45
f 79/86/49 12/14/50 14/16/48 80/87/47
f 78/85/51 10/12/52 12/14/50 79/86/49
f 77/84/53 8/10/54 10/12/52 78/85/51
f 76/83/55 6/8/56 8/10/54 77/84/53
f 75/82/57 4/6/58 6/8/56 76/83/55
f 74/81/59 2/3/60 4/6/58 75/82/57
f 71/77/61 37/40/62 39/44/63 72/78/64
f 72/78/64 39/44/63 38/42/3 70/76/2
f 68/74/65 71/77/61 72/78/64 69/75/66
f 69/75/66 72/78/64 70/76/2 67/73/21
f 65/71/67 68/74/65 69/75/66 66/72/68
f 66/72/68 69/75/66 67/73/21 64/70/19
f 62/68/69 65/71/67 66/72/68 63/69/70
f 63/69/70 66/72/68 64/70/19 61/67/17
f 59/65/71 62/68/69 63/69/70 60/66/72
f 60/66/72 63/69/70 61/67/17 58/64/15
f 56/62/73 59/65/71 60/66/72 57/63/74
f 57/63/74 60/66/72 58/64/15 55/61/13
f 53/59/75 56/62/73 57/63/74 54/60/76
f 54/60/76 57/63/74 55/61/13 52/58/11
f 50/56/77 53/59/75 54/60/76 51/57/78
f 51/57/78 54/60/76 52/58/11 49/55/9
f 47/53/79 50/56/77 51/57/78 48/54/80
f 48/54/80 51/57/78 49/55/9 46/52/7
f 44/50/81 47/53/79 48/54/80 45/51/82
f 45/51/82 48/54/80 46/52/7 43/49/6
f 41/47/83 44/50/81 45/51/82 42/48/84
f 42/48/84 45/51/82 43/49/6 40/46/25
f 37/41/62 41/47/83 42/48/84 39/45/63
f 39/45/63 42/48/84 40/46/25 38/43/3
f 73/79/40 24/26/39 2/4/60 74/80/59
f 71/77/61 73/79/40 74/80/59 37/40/62
f 37/41/62 74/81/59 75/82/57 41/47/83
f 41/47/83 75/82/57 76/83/55 44/50/81
f 44/50/81 76/83/55 77/84/53 47/53/79
f 47/53/79 77/84/53 78/85/51 50/56/77
f 50/56/77 78/85/51 79/86/49 53/59/75
f 53/59/75 79/86/49 80/87/47 56/62/73
f 56/62/73 80/87/47 81/88/45 59/65/71
f 59/65/71 81/88/45 82/89/43 62/68/69
f 62/68/69 82/89/43 83/90/41 65/71/67
f 65/71/67 83/90/41 84/91/37 68/74/65
f 68/74/65 84/91/37 73/79/40 71/77/61
